<svg width="24" height="24" viewBox="0 0 24 24" fill="none" xmlns="http://www.w3.org/2000/svg">
<path fill-rule="evenodd" clip-rule="evenodd" d="M5.25 0C5.44891 0 5.63968 0.0790176 5.78033 0.21967C5.92098 0.360322 6 0.551088 6 0.75V1.5H18V0.75C18 0.551088 18.079 0.360322 18.2197 0.21967C18.3603 0.0790176 18.5511 0 18.75 0C18.9489 0 19.1397 0.0790176 19.2803 0.21967C19.421 0.360322 19.5 0.551088 19.5 0.75V1.5H21C21.7956 1.5 22.5587 1.81607 23.1213 2.37868C23.6839 2.94129 24 3.70435 24 4.5V21C24 21.7956 23.6839 22.5587 23.1213 23.1213C22.5587 23.6839 21.7956 24 21 24H3C2.20435 24 1.44129 23.6839 0.87868 23.1213C0.316071 22.5587 0 21.7956 0 21V4.5C0 3.70435 0.316071 2.94129 0.87868 2.37868C1.44129 1.81607 2.20435 1.5 3 1.5H4.5V0.75C4.5 0.551088 4.57902 0.360322 4.71967 0.21967C4.86032 0.0790176 5.05109 0 5.25 0V0ZM3 3C2.60218 3 2.22064 3.15804 1.93934 3.43934C1.65804 3.72064 1.5 4.10218 1.5 4.5V21C1.5 21.3978 1.65804 21.7794 1.93934 22.0607C2.22064 22.342 2.60218 22.5 3 22.5H21C21.3978 22.5 21.7794 22.342 22.0607 22.0607C22.342 21.7794 22.5 21.3978 22.5 21V4.5C22.5 4.10218 22.342 3.72064 22.0607 3.43934C21.7794 3.15804 21.3978 3 21 3H3Z" fill="white"/>
<path d="M3.75 6C3.75 5.80109 3.82902 5.61032 3.96967 5.46967C4.11032 5.32902 4.30109 5.25 4.5 5.25H19.5C19.6989 5.25 19.8897 5.32902 20.0303 5.46967C20.171 5.61032 20.25 5.80109 20.25 6V7.5C20.25 7.69891 20.171 7.88968 20.0303 8.03033C19.8897 8.17098 19.6989 8.25 19.5 8.25H4.5C4.30109 8.25 4.11032 8.17098 3.96967 8.03033C3.82902 7.88968 3.75 7.69891 3.75 7.5V6Z" fill="white"/>
<path fill-rule="evenodd" clip-rule="evenodd" d="M16.2808 12.2189C16.3507 12.2885 16.4061 12.3713 16.4439 12.4624C16.4817 12.5535 16.5012 12.6512 16.5012 12.7499C16.5012 12.8485 16.4817 12.9462 16.4439 13.0373C16.4061 13.1284 16.3507 13.2112 16.2808 13.2809L11.7808 17.7809C11.7112 17.8507 11.6284 17.9061 11.5373 17.9439C11.4462 17.9818 11.3485 18.0012 11.2498 18.0012C11.1512 18.0012 11.0535 17.9818 10.9624 17.9439C10.8713 17.9061 10.7885 17.8507 10.7188 17.7809L8.46885 15.5309C8.39912 15.4611 8.3438 15.3784 8.30606 15.2873C8.26833 15.1961 8.2489 15.0985 8.2489 14.9999C8.2489 14.9013 8.26833 14.8036 8.30606 14.7125C8.3438 14.6214 8.39912 14.5386 8.46885 14.4689C8.60968 14.328 8.80069 14.2489 8.99985 14.2489C9.09846 14.2489 9.19612 14.2684 9.28722 14.3061C9.37833 14.3438 9.46112 14.3991 9.53085 14.4689L11.2498 16.1894L15.2188 12.2189C15.2885 12.149 15.3713 12.0936 15.4624 12.0558C15.5535 12.018 15.6512 11.9985 15.7498 11.9985C15.8485 11.9985 15.9462 12.018 16.0373 12.0558C16.1284 12.0936 16.2112 12.149 16.2808 12.2189Z" fill="white"/>
</svg>
