<svg width="24" height="24" viewBox="0 0 24 24" fill="none" xmlns="http://www.w3.org/2000/svg">
<path d="M3.17688 10.322L3.17729 10.3224L11.6463 18.7929L11.9999 19.1465L12.3535 18.7929L20.8224 10.3224C20.8695 10.2754 20.9333 10.2489 20.9999 10.2489C21.0664 10.2489 21.1303 10.2754 21.1773 10.3224C21.2244 10.3695 21.2508 10.4333 21.2508 10.4999C21.2508 10.5664 21.2244 10.6303 21.1773 10.6773L12.1773 19.6773L12.1769 19.6778C12.1537 19.7011 12.1261 19.7195 12.0957 19.7321C12.0653 19.7447 12.0328 19.7512 11.9999 19.7512C11.967 19.7512 11.9344 19.7447 11.9041 19.7321C11.8737 19.7195 11.8461 19.7011 11.8229 19.6778L11.8224 19.6773L2.82243 10.6773L2.82198 10.6769C2.7987 10.6537 2.78023 10.6261 2.76763 10.5957C2.75502 10.5653 2.74854 10.5328 2.74854 10.4999C2.74854 10.467 2.75502 10.4344 2.76763 10.4041C2.78023 10.3737 2.7987 10.3461 2.82198 10.3229L2.46888 9.96888L2.82288 10.322C2.8461 10.2987 2.87369 10.2802 2.90406 10.2676C2.93443 10.255 2.96699 10.2485 2.99988 10.2485C3.03276 10.2485 3.06532 10.255 3.09569 10.2676C3.12606 10.2802 3.15365 10.2987 3.17688 10.322Z" fill="#FFA500" stroke="#FFA500"/>
<path fill-rule="evenodd" clip-rule="evenodd" d="M2.46888 3.96888C2.53854 3.89903 2.62131 3.84362 2.71243 3.80581C2.80354 3.768 2.90122 3.74854 2.99988 3.74854C3.09853 3.74854 3.19621 3.768 3.28733 3.80581C3.37844 3.84362 3.46121 3.89903 3.53088 3.96888L11.9999 12.4394L20.4689 3.96888C20.5386 3.89914 20.6214 3.84383 20.7125 3.80609C20.8036 3.76835 20.9013 3.74893 20.9999 3.74893C21.0985 3.74893 21.1961 3.76835 21.2873 3.80609C21.3784 3.84383 21.4611 3.89914 21.5309 3.96888C21.6006 4.03861 21.6559 4.12139 21.6937 4.2125C21.7314 4.30361 21.7508 4.40126 21.7508 4.49988C21.7508 4.59849 21.7314 4.69614 21.6937 4.78725C21.6559 4.87836 21.6006 4.96114 21.5309 5.03088L12.5309 14.0309C12.4612 14.1007 12.3784 14.1561 12.2873 14.1939C12.1962 14.2318 12.0985 14.2512 11.9999 14.2512C11.9012 14.2512 11.8035 14.2318 11.7124 14.1939C11.6213 14.1561 11.5385 14.1007 11.4689 14.0309L2.46888 5.03088C2.39903 4.96121 2.34362 4.87844 2.30581 4.78733C2.268 4.69621 2.24854 4.59853 2.24854 4.49988C2.24854 4.40122 2.268 4.30354 2.30581 4.21243C2.34362 4.12131 2.39903 4.03854 2.46888 3.96888Z" fill="black"/>
</svg>
