<svg width="373" height="111" viewBox="0 0 373 111" fill="none" xmlns="http://www.w3.org/2000/svg">
<path d="M66.0103 9.25549H60.7912C58.9096 9.25549 57.3846 10.7885 57.3846 12.6795V31.7471C57.3846 33.6382 58.9096 35.1711 60.7912 35.1711H66.0103C67.8919 35.1711 69.4169 33.6382 69.4169 31.7471V12.6795C69.4169 10.7885 67.8919 9.25549 66.0103 9.25549Z" fill="white"/>
<path d="M46.2779 108.362V89.7791H69.4169L49.3472 109.621C49.0957 109.87 48.7751 110.039 48.4262 110.107C48.0773 110.176 47.7156 110.141 47.387 110.006C47.0584 109.871 46.7776 109.643 46.5801 109.35C46.3827 109.058 46.2775 108.714 46.2779 108.362Z" fill="white"/>
<path d="M70.3424 88.8535H46.2779V90.7046H68.0028L70.3424 88.8535Z" fill="white"/>
<path d="M75.3446 34.1776L42.6638 1.37803C41.78 0.495459 40.5838 0 39.337 0C38.0902 0 36.894 0.495459 36.0102 1.37803L3.32986 34.1776C1.33561 36.4034 0.160541 39.2471 0 42.2361V48.0135C17.8544 61.3442 39.5238 68.5271 61.7776 68.4912C67.4371 68.4922 73.0875 68.0306 78.6725 67.1109V42.2361C78.5101 39.248 77.3363 36.4049 75.3446 34.1776Z" fill="white"/>
<path d="M61.7776 73.3295C39.5238 73.365 17.8545 66.1489 0 52.7568V84.1103C0.00403852 85.3673 0.501025 86.5712 1.38247 87.4597C2.26392 88.3486 3.45824 88.8495 4.70479 88.8536H73.9682C75.2144 88.8495 76.4086 88.3481 77.2904 87.4597C78.1716 86.5707 78.6684 85.3668 78.6725 84.1103V71.9428C73.0875 72.8668 67.4371 73.3305 61.7776 73.3295Z" fill="white"/>
<path d="M104.612 56.3236L104.4 58.7855L105.532 57.2551L124.86 37.7602H135.55L114.24 58.9185L136.329 86.1981H125.851L108.223 63.8422L104.612 67.1689V86.1981H96.2581V37.7602H104.612V56.3236Z" fill="white"/>
<path d="M139.394 62.0457C139.394 58.6746 140.078 55.503 141.447 52.5311C142.816 49.5592 144.704 46.9199 147.111 44.6134C149.518 42.3068 152.303 40.5103 155.465 39.224C158.674 37.8933 162.096 37.2279 165.73 37.2279C169.317 37.2279 172.692 37.8933 175.854 39.224C179.064 40.5103 181.872 42.3068 184.279 44.6134C186.733 46.9199 188.645 49.5592 190.013 52.5311C191.429 55.503 192.137 58.6746 192.137 62.0457C192.137 65.4612 191.429 68.6549 190.013 71.6268C188.645 74.5988 186.733 77.238 184.279 79.5446C181.872 81.8068 179.064 83.5811 175.854 84.8674C172.692 86.1094 169.317 86.7304 165.73 86.7304C162.049 86.7304 158.627 86.1094 155.465 84.8674C152.303 83.5811 149.518 81.829 147.111 79.6111C144.704 77.3489 142.816 74.7318 141.447 71.7599C140.078 68.7436 139.394 65.5056 139.394 62.0457ZM147.89 62.0457C147.89 64.441 148.338 66.681 149.235 68.7658C150.179 70.8506 151.477 72.6914 153.129 74.2883C154.78 75.8408 156.692 77.0606 158.863 77.9477C161.034 78.8349 163.394 79.2784 165.943 79.2784C168.397 79.2784 170.686 78.8349 172.81 77.9477C174.981 77.0606 176.869 75.8408 178.474 74.2883C180.078 72.6914 181.329 70.8506 182.226 68.7658C183.17 66.681 183.642 64.441 183.642 62.0457C183.642 59.6061 183.17 57.3438 182.226 55.2591C181.282 53.1743 180.008 51.3335 178.403 49.7366C176.798 48.1398 174.91 46.8978 172.739 46.0106C170.568 45.1235 168.232 44.6799 165.73 44.6799C163.229 44.6799 160.893 45.1235 158.721 46.0106C156.55 46.8978 154.639 48.1398 152.987 49.7366C151.382 51.3335 150.132 53.1965 149.235 55.3256C148.338 57.4104 147.89 59.6504 147.89 62.0457Z" fill="white"/>
<path d="M248.454 87.9281L208.879 51.8657L211.286 52.7972L211.498 86.1981H203.144V36.0968H203.498L242.507 72.1591L240.595 71.6268L240.454 37.7602H248.666V87.9281H248.454Z" fill="white"/>
<path d="M259.693 62.0457C259.693 58.6746 260.377 55.503 261.746 52.5311C263.114 49.5592 265.002 46.9199 267.409 44.6134C269.816 42.3068 272.601 40.5103 275.763 39.224C278.973 37.8933 282.395 37.2279 286.029 37.2279C289.616 37.2279 292.99 37.8933 296.153 39.224C299.362 40.5103 302.17 42.3068 304.578 44.6134C307.032 46.9199 308.943 49.5592 310.312 52.5311C311.728 55.503 312.436 58.6746 312.436 62.0457C312.436 65.4612 311.728 68.6549 310.312 71.6268C308.943 74.5988 307.032 77.238 304.578 79.5446C302.17 81.8068 299.362 83.5811 296.153 84.8674C292.99 86.1094 289.616 86.7304 286.029 86.7304C282.347 86.7304 278.926 86.1094 275.763 84.8674C272.601 83.5811 269.816 81.829 267.409 79.6111C265.002 77.3489 263.114 74.7318 261.746 71.7599C260.377 68.7436 259.693 65.5056 259.693 62.0457ZM268.188 62.0457C268.188 64.441 268.637 66.681 269.533 68.7658C270.477 70.8506 271.775 72.6914 273.427 74.2883C275.079 75.8408 276.991 77.0606 279.162 77.9477C281.333 78.8349 283.693 79.2784 286.241 79.2784C288.696 79.2784 290.985 78.8349 293.109 77.9477C295.28 77.0606 297.168 75.8408 298.772 74.2883C300.377 72.6914 301.628 70.8506 302.524 68.7658C303.468 66.681 303.94 64.441 303.94 62.0457C303.94 59.6061 303.468 57.3438 302.524 55.2591C301.58 53.1743 300.306 51.3335 298.701 49.7366C297.097 48.1398 295.209 46.8978 293.038 46.0106C290.867 45.1235 288.53 44.6799 286.029 44.6799C283.527 44.6799 281.191 45.1235 279.02 46.0106C276.849 46.8978 274.937 48.1398 273.286 49.7366C271.681 51.3335 270.43 53.1965 269.533 55.3256C268.637 57.4104 268.188 59.6504 268.188 62.0457Z" fill="white"/>
<path d="M320.257 62.0457C320.257 58.6746 320.941 55.503 322.31 52.5311C323.679 49.5592 325.566 46.9199 327.974 44.6134C330.381 42.3068 333.165 40.5103 336.327 39.224C339.537 37.8933 342.959 37.2279 346.593 37.2279C350.18 37.2279 353.555 37.8933 356.717 39.224C359.926 40.5103 362.735 42.3068 365.142 44.6134C367.596 46.9199 369.507 49.5592 370.876 52.5311C372.292 55.503 373 58.6746 373 62.0457C373 65.4612 372.292 68.6549 370.876 71.6268C369.507 74.5988 367.596 77.238 365.142 79.5446C362.735 81.8068 359.926 83.5811 356.717 84.8674C353.555 86.1094 350.18 86.7304 346.593 86.7304C342.912 86.7304 339.49 86.1094 336.327 84.8674C333.165 83.5811 330.381 81.829 327.974 79.6111C325.566 77.3489 323.679 74.7318 322.31 71.7599C320.941 68.7436 320.257 65.5056 320.257 62.0457ZM328.752 62.0457C328.752 64.441 329.201 66.681 330.097 68.7658C331.041 70.8506 332.339 72.6914 333.991 74.2883C335.643 75.8408 337.555 77.0606 339.726 77.9477C341.897 78.8349 344.257 79.2784 346.805 79.2784C349.26 79.2784 351.549 78.8349 353.673 77.9477C355.844 77.0606 357.732 75.8408 359.336 74.2883C360.941 72.6914 362.192 70.8506 363.089 68.7658C364.032 66.681 364.504 64.441 364.504 62.0457C364.504 59.6061 364.032 57.3438 363.089 55.2591C362.145 53.1743 360.87 51.3335 359.266 49.7366C357.661 48.1398 355.773 46.8978 353.602 46.0106C351.431 45.1235 349.094 44.6799 346.593 44.6799C344.091 44.6799 341.755 45.1235 339.584 46.0106C337.413 46.8978 335.502 48.1398 333.85 49.7366C332.245 51.3335 330.994 53.1965 330.097 55.3256C329.201 57.4104 328.752 59.6504 328.752 62.0457Z" fill="white"/>
</svg>
