<svg width="136" height="40" viewBox="0 0 136 40" fill="none" xmlns="http://www.w3.org/2000/svg">
<path d="M24.1852 3.24686H22.2377C21.5356 3.24686 20.9666 3.81596 20.9666 4.51798V11.5967C20.9666 12.2987 21.5356 12.8678 22.2377 12.8678H24.1852C24.8873 12.8678 25.4563 12.2987 25.4563 11.5967V4.51798C25.4563 3.81596 24.8873 3.24686 24.1852 3.24686Z" fill="#58A4B0"/>
<path d="M16.9033 39.358V32.6519H25.1582L17.9983 39.8121C17.9085 39.9019 17.7942 39.963 17.6697 39.9877C17.5452 40.0124 17.4162 39.9997 17.2989 39.9511C17.1817 39.9025 17.0815 39.8201 17.0111 39.7145C16.9407 39.6091 16.9031 39.4849 16.9033 39.358Z" fill="#C5D86D"/>
<path d="M25.6005 32.2353H16.9033V33.0391H24.7549L25.6005 32.2353Z" fill="#58A4B0"/>
<path d="M27.3885 12.3801L15.5087 0.49916C15.1874 0.179469 14.7526 0 14.2994 0C13.8461 0 13.4113 0.179469 13.09 0.49916L1.21044 12.3801C0.485507 13.1863 0.0583581 14.2164 0 15.2991V17.3918C6.49025 22.2206 14.3672 24.8224 22.4567 24.8094C24.514 24.8098 26.568 24.6425 28.5982 24.3094V15.2991C28.5391 14.2167 28.1125 13.1869 27.3885 12.3801Z" fill="#58A4B0"/>
<path d="M22.4571 26.7336C14.3676 26.7464 6.49065 24.1446 0.000366211 19.316V30.6207C0.00183425 31.0739 0.182493 31.508 0.502908 31.8283C0.82332 32.1488 1.25747 32.3294 1.7106 32.3309H26.8885C27.3415 32.3294 27.7756 32.1487 28.0961 31.8283C28.4165 31.5078 28.597 31.0737 28.5985 30.6207V26.2336C26.5683 26.5668 24.5144 26.734 22.4571 26.7336Z" fill="#C5D86D"/>
<path d="M38.0489 20.4146L37.9714 21.3171L38.3848 20.7561L45.4385 13.6098H49.34L41.5628 21.3659L49.6243 31.3659H45.8002L39.3666 23.1707L38.0489 24.3902V31.3659H35V13.6098H38.0489V20.4146Z" fill="#58A4B0"/>
<path d="M50.743 22.5122C50.743 21.2764 50.9927 20.1138 51.4923 19.0244C51.9918 17.935 52.6808 16.9675 53.5593 16.122C54.4378 15.2764 55.4541 14.6179 56.6082 14.1463C57.7795 13.6585 59.0283 13.4146 60.3547 13.4146C61.6638 13.4146 62.8954 13.6585 64.0495 14.1463C65.2208 14.6179 66.2457 15.2764 67.1242 16.122C68.0199 16.9675 68.7175 17.935 69.2171 19.0244C69.7338 20.1138 69.9922 21.2764 69.9922 22.5122C69.9922 23.7642 69.7338 24.935 69.2171 26.0244C68.7175 27.1138 68.0199 28.0813 67.1242 28.9268C66.2457 29.7561 65.2208 30.4065 64.0495 30.878C62.8954 31.3333 61.6638 31.561 60.3547 31.561C59.0111 31.561 57.7623 31.3333 56.6082 30.878C55.4541 30.4065 54.4378 29.7642 53.5593 28.9512C52.6808 28.122 51.9918 27.1626 51.4923 26.0732C50.9927 24.9675 50.743 23.7805 50.743 22.5122ZM53.8435 22.5122C53.8435 23.3902 54.0072 24.2114 54.3344 24.9756C54.6789 25.7398 55.1526 26.4146 55.7555 27C56.3584 27.5691 57.056 28.0163 57.8484 28.3415C58.6407 28.6667 59.502 28.8293 60.4322 28.8293C61.3279 28.8293 62.1633 28.6667 62.9385 28.3415C63.7308 28.0163 64.4198 27.5691 65.0055 27C65.5912 26.4146 66.0476 25.7398 66.3749 24.9756C66.7194 24.2114 66.8917 23.3902 66.8917 22.5122C66.8917 21.6179 66.7194 20.7886 66.3749 20.0244C66.0304 19.2602 65.5653 18.5854 64.9797 18C64.394 17.4146 63.705 16.9593 62.9126 16.6341C62.1203 16.3089 61.2676 16.1463 60.3547 16.1463C59.4417 16.1463 58.5891 16.3089 57.7967 16.6341C57.0043 16.9593 56.3067 17.4146 55.7038 18C55.1182 18.5854 54.6617 19.2683 54.3344 20.0488C54.0072 20.813 53.8435 21.6341 53.8435 22.5122Z" fill="#58A4B0"/>
<path d="M90.5455 32L76.1021 18.7805L76.9806 19.122L77.0581 31.3659H74.0092V13H74.1384L88.3751 26.2195L87.6775 26.0244L87.6258 13.6098H90.623V32H90.5455Z" fill="#58A4B0"/>
<path d="M94.6472 22.5122C94.6472 21.2764 94.897 20.1138 95.3965 19.0244C95.8961 17.935 96.5851 16.9675 97.4636 16.122C98.342 15.2764 99.3583 14.6179 100.512 14.1463C101.684 13.6585 102.933 13.4146 104.259 13.4146C105.568 13.4146 106.8 13.6585 107.954 14.1463C109.125 14.6179 110.15 15.2764 111.028 16.122C111.924 16.9675 112.622 17.935 113.121 19.0244C113.638 20.1138 113.896 21.2764 113.896 22.5122C113.896 23.7642 113.638 24.935 113.121 26.0244C112.622 27.1138 111.924 28.0813 111.028 28.9268C110.15 29.7561 109.125 30.4065 107.954 30.878C106.8 31.3333 105.568 31.561 104.259 31.561C102.915 31.561 101.667 31.3333 100.512 30.878C99.3583 30.4065 98.342 29.7642 97.4636 28.9512C96.5851 28.122 95.8961 27.1626 95.3965 26.0732C94.897 24.9675 94.6472 23.7805 94.6472 22.5122ZM97.7478 22.5122C97.7478 23.3902 97.9114 24.2114 98.2387 24.9756C98.5832 25.7398 99.0569 26.4146 99.6598 27C100.263 27.5691 100.96 28.0163 101.753 28.3415C102.545 28.6667 103.406 28.8293 104.336 28.8293C105.232 28.8293 106.068 28.6667 106.843 28.3415C107.635 28.0163 108.324 27.5691 108.91 27C109.495 26.4146 109.952 25.7398 110.279 24.9756C110.624 24.2114 110.796 23.3902 110.796 22.5122C110.796 21.6179 110.624 20.7886 110.279 20.0244C109.935 19.2602 109.47 18.5854 108.884 18C108.298 17.4146 107.609 16.9593 106.817 16.6341C106.025 16.3089 105.172 16.1463 104.259 16.1463C103.346 16.1463 102.493 16.3089 101.701 16.6341C100.909 16.9593 100.211 17.4146 99.6081 18C99.0225 18.5854 98.566 19.2683 98.2387 20.0488C97.9114 20.813 97.7478 21.6341 97.7478 22.5122Z" fill="#58A4B0"/>
<path d="M116.751 22.5122C116.751 21.2764 117.001 20.1138 117.5 19.0244C118 17.935 118.689 16.9675 119.567 16.122C120.446 15.2764 121.462 14.6179 122.616 14.1463C123.787 13.6585 125.036 13.4146 126.362 13.4146C127.672 13.4146 128.903 13.6585 130.057 14.1463C131.229 14.6179 132.254 15.2764 133.132 16.122C134.028 16.9675 134.725 17.935 135.225 19.0244C135.742 20.1138 136 21.2764 136 22.5122C136 23.7642 135.742 24.935 135.225 26.0244C134.725 27.1138 134.028 28.0813 133.132 28.9268C132.254 29.7561 131.229 30.4065 130.057 30.878C128.903 31.3333 127.672 31.561 126.362 31.561C125.019 31.561 123.77 31.3333 122.616 30.878C121.462 30.4065 120.446 29.7642 119.567 28.9512C118.689 28.122 118 27.1626 117.5 26.0732C117.001 24.9675 116.751 23.7805 116.751 22.5122ZM119.851 22.5122C119.851 23.3902 120.015 24.2114 120.342 24.9756C120.687 25.7398 121.16 26.4146 121.763 27C122.366 27.5691 123.064 28.0163 123.856 28.3415C124.649 28.6667 125.51 28.8293 126.44 28.8293C127.336 28.8293 128.171 28.6667 128.946 28.3415C129.739 28.0163 130.428 27.5691 131.013 27C131.599 26.4146 132.055 25.7398 132.383 24.9756C132.727 24.2114 132.899 23.3902 132.899 22.5122C132.899 21.6179 132.727 20.7886 132.383 20.0244C132.038 19.2602 131.573 18.5854 130.987 18C130.402 17.4146 129.713 16.9593 128.92 16.6341C128.128 16.3089 127.275 16.1463 126.362 16.1463C125.45 16.1463 124.597 16.3089 123.805 16.6341C123.012 16.9593 122.315 17.4146 121.712 18C121.126 18.5854 120.67 19.2683 120.342 20.0488C120.015 20.813 119.851 21.6341 119.851 22.5122Z" fill="#58A4B0"/>
</svg>
