<svg width="48" height="48" viewBox="0 0 48 48" fill="none" xmlns="http://www.w3.org/2000/svg">
<path d="M0 24C0 10.7452 10.7452 0 24 0C37.2548 0 48 10.7452 48 24C48 37.2548 37.2548 48 24 48C10.7452 48 0 37.2548 0 24Z" fill="#58A4B0"/>
<path fill-rule="evenodd" clip-rule="evenodd" d="M26.4408 26.4422C26.5337 26.3492 26.6439 26.2755 26.7653 26.2251C26.8867 26.1748 27.0169 26.1489 27.1483 26.1489C27.2797 26.1489 27.4098 26.1748 27.5312 26.2251C27.6526 26.2755 27.7629 26.3492 27.8558 26.4422L31.7058 30.2922C31.8934 30.4797 31.9989 30.7341 31.999 30.9993C31.9991 31.2646 31.8938 31.5191 31.7063 31.7067C31.5188 31.8943 31.2644 31.9998 30.9991 31.9999C30.7339 32 30.4794 31.8947 30.2918 31.7072L26.4418 27.8572C26.3488 27.7643 26.2751 27.654 26.2247 27.5326C26.1744 27.4112 26.1485 27.2811 26.1485 27.1497C26.1485 27.0183 26.1744 26.8882 26.2247 26.7668C26.2751 26.6454 26.3488 26.5351 26.4418 26.4422H26.4408Z" fill="white"/>
<path fill-rule="evenodd" clip-rule="evenodd" d="M22.5 28C23.2223 28 23.9375 27.8577 24.6048 27.5813C25.272 27.3049 25.8784 26.8998 26.3891 26.3891C26.8998 25.8784 27.3049 25.272 27.5813 24.6048C27.8577 23.9375 28 23.2223 28 22.5C28 21.7777 27.8577 21.0625 27.5813 20.3952C27.3049 19.728 26.8998 19.1216 26.3891 18.6109C25.8784 18.1002 25.272 17.6951 24.6048 17.4187C23.9375 17.1423 23.2223 17 22.5 17C21.0413 17 19.6424 17.5795 18.6109 18.6109C17.5795 19.6424 17 21.0413 17 22.5C17 23.9587 17.5795 25.3576 18.6109 26.3891C19.6424 27.4205 21.0413 28 22.5 28ZM29 22.5C29 24.2239 28.3152 25.8772 27.0962 27.0962C25.8772 28.3152 24.2239 29 22.5 29C20.7761 29 19.1228 28.3152 17.9038 27.0962C16.6848 25.8772 16 24.2239 16 22.5C16 20.7761 16.6848 19.1228 17.9038 17.9038C19.1228 16.6848 20.7761 16 22.5 16C24.2239 16 25.8772 16.6848 27.0962 17.9038C28.3152 19.1228 29 20.7761 29 22.5Z" fill="white"/>
</svg>
